<svg xmlns="http://www.w3.org/2000/svg" width="21" height="21" viewBox="0 0 21 21"><path d="M12.6,21H8.4a1.051,1.051,0,0,1-1.05-1.05,5.263,5.263,0,0,1-5.143-4.2H2.1A2.1,2.1,0,0,1,0,13.65V9.45a2.1,2.1,0,0,1,2.1-2.1h.073a8.392,8.392,0,0,1,16.655,0H18.9A2.1,2.1,0,0,1,21,9.45v4.2a2.1,2.1,0,0,1-2.1,2.1H14.7V7.35h2.005a6.294,6.294,0,0,0-12.412,0H6.3v8.4H4.394a3.152,3.152,0,0,0,2.956,2.1A1.052,1.052,0,0,1,8.4,16.8h4.2a1.051,1.051,0,0,1,1.05,1.05v2.1A1.051,1.051,0,0,1,12.6,21ZM16.8,9.45v4.2h2.1V9.45Zm-14.7,0v4.2H4.2V9.45Z"/></svg>