<svg xmlns="http://www.w3.org/2000/svg" width="20" height="20" viewBox="0 0 20 20"><path d="M0,10A10,10,0,1,1,10,20,10.011,10.011,0,0,1,0,10Zm2,0a8,8,0,1,0,8-8A8.01,8.01,0,0,0,2,10Zm7,4.5v-5a1,1,0,0,1,2,0v5a1,1,0,0,1-2,0Zm.581-7.982a1.135,1.135,0,0,1-.362-.24,1.335,1.335,0,0,1-.241-.36A1.171,1.171,0,0,1,8.9,5.5a1.212,1.212,0,0,1,.079-.419,1.192,1.192,0,0,1,.1-.19,1.11,1.11,0,0,1,.139-.17,1.139,1.139,0,0,1,.992-.3l.209.06a1.114,1.114,0,0,1,.19.11,1.263,1.263,0,0,1,.171.13,1.1,1.1,0,0,1,.238.36A1.214,1.214,0,0,1,11.1,5.5a1.172,1.172,0,0,1-.081.42A1.091,1.091,0,0,1,10,6.6,1.167,1.167,0,0,1,9.581,6.521Z"/></svg>