<svg xmlns="http://www.w3.org/2000/svg" width="17" height="18.471" viewBox="0 0 17 18.471"><path d="M10.667,18.471a1,1,0,0,1-.706-.285L7.293,15.594a.953.953,0,0,1,0-1.374,1.018,1.018,0,0,1,1.414,0l1.96,1.9,4.626-4.5a1.02,1.02,0,0,1,1.414,0,.951.951,0,0,1,0,1.374l-5.332,5.186A1.009,1.009,0,0,1,10.667,18.471ZM1,18.47A.987.987,0,0,1,0,17.5v-.85a7.55,7.55,0,0,1,1.635-4.7,8.092,8.092,0,0,1,4.129-2.76A4.821,4.821,0,0,1,3,4.861,4.938,4.938,0,0,1,8,0a4.937,4.937,0,0,1,5,4.861,4.819,4.819,0,0,1-2.761,4.324,8.137,8.137,0,0,1,3.048,1.641L11.873,12.2A6.1,6.1,0,0,0,8,10.815a5.925,5.925,0,0,0-6,5.833v.85A.987.987,0,0,1,1,18.47ZM8,1.944A2.963,2.963,0,0,0,5,4.861a3,3,0,0,0,6,0A2.963,2.963,0,0,0,8,1.944Z"/></svg>